PathFileType	4	(X/Y/Z)	./resultDataOpenSim/trcMotMarkerGrf/sub10/qtm-01-02.trc
DataRate	CameraRate	NumFrames	NumMarkers	Units	OrigDataRate	OrigDataStartFrame	OrigNumFrames
250.000000	250.000000	13	24	m	250.000000	114	454
Frame#	Time	L.Toe.Tip			R.Toe.Tip			L.Ankle.Lat			R.Ankle.Lat			L.Ankle.Med			R.Ankle.Med			L.Heel			R.Heel			L.Knee.Lat			R.Knee.Lat			L.Knee.Med			R.Knee.Med			L.Thigh.Upper			R.Thigh.Upper			L.ASIS			R.ASIS			V.Sacral			L.Acromium			R.Acromium			C7			L.Elbow			R.Elbow			L.Wrist.Lat			R.Wrist.Lat
		X1	Y1	Z1	X2	Y2	Z2	X3	Y3	Z3	X4	Y4	Z4	X5	Y5	Z5	X6	Y6	Z6	X7	Y7	Z7	X8	Y8	Z8	X9	Y9	Z9	X10	Y10	Z10	X11	Y11	Z11	X12	Y12	Z12	X13	Y13	Z13	X14	Y14	Z14	X15	Y15	Z15	X16	Y16	Z16	X17	Y17	Z17	X18	Y18	Z18	X19	Y19	Z19	X20	Y20	Z20	X21	Y21	Z21	X22	Y22	Z22	X23	Y23	Z23	X24	Y24	Z24

114	0.452	-0.62036039	0.053851825	-0.091159256	-0.74762501	0.039564579	0.05391538	-0.74308782	0.11182789	-0.096164721	-0.88859836	0.053675535	0.093146655	-0.71398157	0.12648524	-0.01616574	-0.8712291	0.084657886	0.011544584	-0.80582115	0.09546518	-0.04084287	-0.94041106	0.031918625	0.043991635	-0.60250965	0.4761459	-0.12050926	-0.8014799	0.44765112	0.15084182	-0.57631091	0.44909586	-0.0041393436	-0.79494982	0.45398876	0.020514134	-0.72832594	0.83397215	-0.16661953	-0.75341864	0.86199313	0.21219875	-0.6719737	0.94280524	-0.099729012	-0.67204909	0.94662093	0.14187558	-0.8667096	0.97675908	0.025146912	-0.71240421	1.4260895	-0.13233923	-0.71281451	1.413118	0.19170012	-0.79499407	1.4516916	0.026906022	-0.8371137	1.1026168	-0.16987987	-0.77627282	1.0627632	0.22834089	-0.71415294	0.89440954	-0.22239353	-0.62124993	0.88128772	0.29412232
115	0.456	-0.59923004	0.053971839	-0.091487639	-0.74785103	0.039459997	0.054031039	-0.72359073	0.10805843	-0.09588395	-0.88878154	0.053974008	0.09290883	-0.6940674	0.12402428	-0.015148132	-0.87113453	0.084764797	0.011136746	-0.78591397	0.089389821	-0.040845381	-0.94029038	0.032219161	0.043329511	-0.5933003	0.47676698	-0.11976997	-0.80033657	0.4475758	0.15093196	-0.56677652	0.44989244	-0.0033301432	-0.79285965	0.45376549	0.020657095	-0.7203927	0.83395612	-0.16674398	-0.74888141	0.8615156	0.21199565	-0.66510927	0.94246939	-0.099072152	-0.66737253	0.94592821	0.1424478	-0.86184008	0.97684202	0.024158498	-0.70626557	1.4256758	-0.13208411	-0.70677867	1.4125749	0.19192542	-0.78887516	1.4511258	0.027114527	-0.83176609	1.1027244	-0.16918857	-0.76740034	1.0614269	0.22892502	-0.7115335	0.89340094	-0.22298928	-0.60838538	0.88264397	0.29308552
116	0.46	-0.5780282	0.054297356	-0.091645151	-0.74803909	0.039405116	0.05417711	-0.70389703	0.10442998	-0.095551508	-0.88884445	0.054312503	0.092587481	-0.67419083	0.12161359	-0.014202016	-0.870986	0.084847445	0.010782054	-0.7658618	0.083462692	-0.040886203	-0.94027774	0.032431347	0.043039022	-0.58413435	0.47723074	-0.11906495	-0.79925524	0.44750255	0.15099141	-0.55725035	0.45056665	-0.0024899427	-0.79067977	0.4535756	0.020835424	-0.71235753	0.83387688	-0.16684866	-0.744166	0.86092551	0.21159265	-0.65821065	0.9420672	-0.098450171	-0.66242532	0.94518427	0.14302072	-0.85676517	0.97676174	0.022717053	-0.70016261	1.4252275	-0.13185216	-0.70072992	1.4119623	0.19214722	-0.78274517	1.4504863	0.027329186	-0.82669605	1.1027589	-0.1690372	-0.75848994	1.0600509	0.22953625	-0.70888684	0.8923536	-0.2235986	-0.59555741	0.88403204	0.29202624
117	0.464	-0.55674225	0.05482202	-0.091637496	-0.74811225	0.039443029	0.05435507	-0.68409893	0.1009648	-0.095189683	-0.88882067	0.054648458	0.092222025	-0.65477412	0.11891591	-0.013731352	-0.87069476	0.084911451	0.010582909	-0.74534486	0.077760297	-0.040670558	-0.94041522	0.03258367	0.043063515	-0.57509521	0.47752969	-0.11841293	-0.79835517	0.4474197	0.15096294	-0.54780299	0.45111763	-0.001654154	-0.78869571	0.45336664	0.02096928	-0.70449384	0.83368638	-0.16693601	-0.73923889	0.86020311	0.21098027	-0.65130673	0.94159428	-0.097862507	-0.65696852	0.94443221	0.14357132	-0.85027	0.97595195	0.02014106	-0.69410472	1.4247344	-0.13165902	-0.69469655	1.4112793	0.19238688	-0.77660356	1.4497702	0.027550227	-0.82174192	1.1027154	-0.16914823	-0.74955173	1.0586043	0.23011156	-0.70620362	0.89126947	-0.22421399	-0.58276741	0.88545477	0.29094285
118	0.468	-0.53543651	0.055516682	-0.091460718	-0.7480902	0.039557043	0.054519603	-0.66426693	0.097670529	-0.094809322	-0.88881777	0.054961564	0.091889263	-0.63586321	0.11591896	-0.01373212	-0.87030474	0.084986881	0.010500686	-0.72432331	0.072320464	-0.040075178	-0.9405835	0.032789779	0.042940449	-0.5662424	0.47765036	-0.11782606	-0.79766845	0.44731508	0.15081988	-0.53853163	0.45153515	-0.00087403878	-0.78698771	0.45310147	0.0210228	-0.69689978	0.83335343	-0.16702364	-0.7342608	0.85939932	0.21034101	-0.64444069	0.94105078	-0.097305486	-0.65120451	0.94367251	0.14410457	-0.84187585	0.97417774	0.01625494	-0.68803915	1.4241519	-0.13148247	-0.6887028	1.410529	0.19266071	-0.77045445	1.448976	0.027772494	-0.81674403	1.1025946	-0.16924108	-0.74059178	1.0570818	0.23063481	-0.70347494	0.89015446	-0.22482082	-0.56999599	0.88690818	0.28980628
119	0.472	-0.51421104	0.056348746	-0.091102086	-0.74807382	0.039667506	0.054590902	-0.64440264	0.094539282	-0.094396757	-0.88890891	0.055254269	0.091624188	-0.61711929	0.11294824	-0.013825745	-0.86996736	0.085085232	0.010407864	-0.7030387	0.067172576	-0.039236188	-0.94063247	0.033108037	0.04233475	-0.55755108	0.47758148	-0.11730883	-0.79700019	0.44718439	0.15062502	-0.52948216	0.45180533	-0.00018451879	-0.78550177	0.45275339	0.020998587	-0.68945928	0.83288936	-0.16712074	-0.72956699	0.85862189	0.21002862	-0.63763282	0.94044401	-0.096781449	-0.64549292	0.94287331	0.14463966	-0.83267846	0.97190634	0.011999849	-0.68189569	1.4234357	-0.13128717	-0.68273845	1.4097113	0.19296165	-0.76431465	1.4481088	0.02799244	-0.81165188	1.1024004	-0.1692233	-0.73161061	1.0555105	0.23114947	-0.70071087	0.88901178	-0.2254089	-0.55723104	0.88837822	0.28857751
120	0.476	-0.49310278	0.05731065	-0.090549379	-0.74812732	0.03971115	0.054555849	-0.62445972	0.091574266	-0.093932586	-0.88908356	0.055521109	0.091413859	-0.59820446	0.11033789	-0.013664311	-0.86974787	0.085199389	0.010263772	-0.68175786	0.062349604	-0.038410046	-0.94055226	0.033468007	0.041452269	-0.54896022	0.47731955	-0.11685453	-0.79607039	0.44703487	0.15048418	-0.52063508	0.45192223	0.0004104514	-0.78413499	0.45232027	0.020925406	-0.68198818	0.8323319	-0.16721947	-0.7253714	0.85792908	0.21026325	-0.63082963	0.93977562	-0.096291307	-0.63999425	0.94200655	0.14518579	-0.82446661	0.96990416	0.0087655192	-0.67566134	1.4225883	-0.13106336	-0.67677156	1.4088223	0.19326959	-0.75820857	1.4471768	0.028211435	-0.80649358	1.102136	-0.16913158	-0.72261989	1.0539249	0.23171625	-0.69793503	0.88783929	-0.22598094	-0.544476	0.88985271	0.2872464
121	0.48	-0.47208335	0.058420583	-0.089793708	-0.74822277	0.039695261	0.054486948	-0.60440071	0.088798194	-0.09340844	-0.8892671	0.055742663	0.091227999	-0.57903458	0.10818103	-0.01317447	-0.86959203	0.085326798	0.010132691	-0.66060691	0.057879432	-0.037793084	-0.94043769	0.033788155	0.040669802	-0.54041749	0.47686261	-0.11644858	-0.79477887	0.44687372	0.15044494	-0.51193582	0.45189243	0.00093135959	-0.78272904	0.45185039	0.020852757	-0.67438175	0.83170886	-0.1673078	-0.72146945	0.85726016	0.21081336	-0.62390954	0.93903473	-0.095826502	-0.6346591	0.94106537	0.14573804	-0.81825609	0.96859318	0.0072426153	-0.6693888	1.421643	-0.1308256	-0.67077324	1.4078623	0.19356809	-0.75213822	1.4461855	0.028431238	-0.80131126	1.1018039	-0.16902185	-0.71365634	1.0523505	0.23238624	-0.6951585	0.88663295	-0.22655146	-0.53176571	0.89133389	0.28585693
122	0.484	-0.45111899	0.059703521	-0.088828311	-0.74831249	0.039657773	0.054444547	-0.58420879	0.086246741	-0.092819794	-0.8894096	0.055921431	0.091048374	-0.55970726	0.10639965	-0.012461195	-0.8694425	0.085466867	0.010056778	-0.63956579	0.053770891	-0.037396617	-0.94035603	0.034063004	0.040126488	-0.53189006	0.47620596	-0.11608322	-0.79320416	0.44669843	0.15048745	-0.50333939	0.45172669	0.001399166	-0.78113067	0.45141169	0.020817798	-0.66665384	0.83102094	-0.16738235	-0.7174409	0.85652162	0.21121577	-0.61681357	0.93821281	-0.095383045	-0.62938078	0.94005824	0.14628265	-0.81396742	0.96793792	0.0072723119	-0.66313238	1.4206197	-0.13058879	-0.66472471	1.4068352	0.19384778	-0.74603163	1.4451359	0.028645284	-0.79612321	1.1014055	-0.16892102	-0.7047672	1.0507987	0.23318603	-0.69237558	0.88538838	-0.22713158	-0.51915082	0.89283116	0.28447174
123	0.488	-0.43019582	0.061172562	-0.087651521	-0.74837785	0.039622515	0.054436778	-0.56389424	0.083960156	-0.092164278	-0.88953759	0.056084517	0.090875713	-0.54034303	0.1049176	-0.011634137	-0.86930032	0.085603961	0.0099752659	-0.61854565	0.050021799	-0.037081527	-0.94031135	0.034323034	0.039769758	-0.52336401	0.47535389	-0.11576518	-0.79143306	0.44650777	0.15057547	-0.49483466	0.45143235	0.0018235651	-0.77929222	0.45103029	0.020816289	-0.65889234	0.83024986	-0.16745113	-0.7131113	0.85569984	0.21128778	-0.60964522	0.93731874	-0.094978182	-0.62408824	0.93899424	0.14680737	-0.8107335	0.96762095	0.0082318688	-0.65690017	1.4195193	-0.13035674	-0.65862093	1.40574	0.19410459	-0.73975854	1.4440251	0.028840877	-0.79092489	1.1009406	-0.16883415	-0.69596645	1.0492587	0.23409344	-0.68957618	0.88410201	-0.2277144	-0.50665289	0.89434929	0.28311654
124	0.492	-0.40932102	0.062813034	-0.086269206	-0.748414	0.039595436	0.054454922	-0.54351671	0.081960023	-0.091454128	-0.88973903	0.056245482	0.090715313	-0.52102189	0.10371451	-0.010745871	-0.86918246	0.085713941	0.0097949336	-0.59751662	0.046650671	-0.036724018	-0.94028233	0.034588517	0.0395147	-0.51485749	0.47433554	-0.11550888	-0.78949478	0.4463091	0.15067346	-0.48642192	0.4510154	0.0022188741	-0.77725772	0.45068225	0.020817622	-0.65118059	0.82937859	-0.16752789	-0.70859085	0.85483241	0.21116849	-0.60254629	0.93637279	-0.094634637	-0.61876085	0.93787498	0.1473125	-0.80716442	0.96712815	0.0091240364	-0.65066997	1.4183443	-0.1301276	-0.65247562	1.4045713	0.19434341	-0.73329724	1.4428546	0.029018546	-0.78570761	1.1004089	-0.16875807	-0.6871984	1.0477047	0.23503954	-0.68674771	0.88277545	-0.22828254	-0.49425886	0.89588811	0.28177515
125	0.496	-0.38851733	0.064593234	-0.084681502	-0.74842128	0.03956299	0.054487636	-0.5231378	0.080234224	-0.090706273	-0.8900839	0.056394295	0.090568318	-0.5017979	0.10280716	-0.0098059011	-0.86906216	0.08579455	0.0095181105	-0.57658994	0.043716704	-0.036281548	-0.94025336	0.034864645	0.039313692	-0.50641046	0.47320175	-0.11534086	-0.78738986	0.44610321	0.15074069	-0.47808956	0.45047658	0.0026095182	-0.77507615	0.45032817	0.020789301	-0.64353228	0.82841034	-0.16762326	-0.70399311	0.85392386	0.21099732	-0.59550422	0.93539606	-0.094345504	-0.61339977	0.93669955	0.14780363	-0.80211396	0.96598797	0.0088944245	-0.64441824	1.4170988	-0.1299034	-0.6463093	1.4033287	0.19457738	-0.72683381	1.4416327	0.029196953	-0.78046729	1.0998099	-0.16868109	-0.67835181	1.0461009	0.23592144	-0.68387669	0.88141605	-0.22883163	-0.48195023	0.89744493	0.28042337
126	0.5	-0.36781098	0.06649667	-0.082865563	-0.74840466	0.039493443	0.054520885	-0.50276565	0.078755784	-0.089910961	-0.89050438	0.056526405	0.090436678	-0.48271755	0.10223032	-0.0088091799	-0.86889449	0.085871074	0.0092373776	-0.55595882	0.04130369	-0.035721552	-0.94022053	0.035152253	0.039156557	-0.4980189	0.471996	-0.11529735	-0.78511216	0.44587509	0.15073448	-0.46985845	0.44980527	0.0029836192	-0.77275496	0.44993741	0.020712528	-0.63588797	0.82736831	-0.16774013	-0.69933435	0.85295271	0.21079965	-0.58838096	0.93439788	-0.094078309	-0.60799995	0.93547058	0.14827677	-0.79559831	0.96417853	0.0072219648	-0.63812845	1.4157787	-0.12968924	-0.64012128	1.4020168	0.19481326	-0.72055836	1.4403629	0.02938792	-0.77521228	1.0991419	-0.16859285	-0.66932945	1.0444082	0.23663255	-0.6809576	0.88003069	-0.22937782	-0.46972199	0.89901599	0.27905216
